<svg width="100" height="71" viewBox="0 0 100 71" fill="none" xmlns="http://www.w3.org/2000/svg">
<g clip-path="url(#clip0_2_352)">
<path d="M30.84 37.92L20.88 66H12.32L2.36 37.92H9.64L16.6 59.12L23.6 37.92H30.84ZM43.8588 66.32C41.6721 66.32 39.6988 65.8533 37.9388 64.92C36.2054 63.9867 34.8321 62.6533 33.8188 60.92C32.8321 59.1867 32.3388 57.16 32.3388 54.84C32.3388 52.5467 32.8454 50.5333 33.8587 48.8C34.8721 47.04 36.2588 45.6933 38.0188 44.76C39.7788 43.8267 41.7521 43.36 43.9388 43.36C46.1254 43.36 48.0988 43.8267 49.8588 44.76C51.6188 45.6933 53.0054 47.04 54.0188 48.8C55.0321 50.5333 55.5388 52.5467 55.5388 54.84C55.5388 57.1333 55.0188 59.16 53.9788 60.92C52.9654 62.6533 51.5654 63.9867 49.7788 64.92C48.0188 65.8533 46.0454 66.32 43.8588 66.32ZM43.8588 60.4C45.1654 60.4 46.2721 59.92 47.1788 58.96C48.1121 58 48.5788 56.6267 48.5788 54.84C48.5788 53.0533 48.1254 51.68 47.2188 50.72C46.3388 49.76 45.2454 49.28 43.9388 49.28C42.6054 49.28 41.4988 49.76 40.6188 50.72C39.7388 51.6533 39.2988 53.0267 39.2988 54.84C39.2988 56.6267 39.7254 58 40.5788 58.96C41.4588 59.92 42.5521 60.4 43.8588 60.4ZM71.6075 60.2V66H68.1275C65.6475 66 63.7142 65.4 62.3275 64.2C60.9408 62.9733 60.2475 60.9867 60.2475 58.24V49.36H57.5275V43.68H60.2475V38.24H67.0875V43.68H71.5675V49.36H67.0875V58.32C67.0875 58.9867 67.2475 59.4667 67.5675 59.76C67.8875 60.0533 68.4208 60.2 69.1675 60.2H71.6075ZM96.4575 54.48C96.4575 55.12 96.4175 55.7867 96.3375 56.48H80.8575C80.9642 57.8667 81.4042 58.9333 82.1775 59.68C82.9775 60.4 83.9508 60.76 85.0975 60.76C86.8042 60.76 87.9908 60.04 88.6575 58.6H95.9375C95.5642 60.0667 94.8842 61.3867 93.8975 62.56C92.9375 63.7333 91.7242 64.6533 90.2575 65.32C88.7908 65.9867 87.1508 66.32 85.3375 66.32C83.1508 66.32 81.2042 65.8533 79.4975 64.92C77.7908 63.9867 76.4575 62.6533 75.4975 60.92C74.5375 59.1867 74.0575 57.16 74.0575 54.84C74.0575 52.52 74.5242 50.4933 75.4575 48.76C76.4175 47.0267 77.7508 45.6933 79.4575 44.76C81.1642 43.8267 83.1242 43.36 85.3375 43.36C87.4975 43.36 89.4175 43.8133 91.0975 44.72C92.7775 45.6267 94.0842 46.92 95.0175 48.6C95.9775 50.28 96.4575 52.24 96.4575 54.48ZM89.4575 52.68C89.4575 51.5067 89.0575 50.5733 88.2575 49.88C87.4575 49.1867 86.4575 48.84 85.2575 48.84C84.1108 48.84 83.1375 49.1733 82.3375 49.84C81.5642 50.5067 81.0842 51.4533 80.8975 52.68H89.4575Z" fill="#DBD8E3"/>
<path d="M11.32 5.92V34H4.48V5.92H11.32ZM29.8769 11.44C32.4902 11.44 34.5702 12.2933 36.1169 14C37.6902 15.68 38.4769 18 38.4769 20.96V34H31.6769V21.88C31.6769 20.3867 31.2902 19.2267 30.5169 18.4C29.7435 17.5733 28.7035 17.16 27.3969 17.16C26.0902 17.16 25.0502 17.5733 24.2769 18.4C23.5035 19.2267 23.1169 20.3867 23.1169 21.88V34H16.2769V11.68H23.1169V14.64C23.8102 13.6533 24.7435 12.88 25.9169 12.32C27.0902 11.7333 28.4102 11.44 29.8769 11.44Z" fill="#DBD8E3"/>
</g>
<defs>
<clipPath id="clip0_2_352">
<rect width="100" height="71" fill="white"/>
</clipPath>
</defs>
</svg>
