<svg width="320" height="568" viewBox="0 0 320 568" fill="none" xmlns="http://www.w3.org/2000/svg">
<g clip-path="url(#clip0_1_114)">
<path d="M-11 380.387C33.1457 376.491 74.7722 361.587 113 338C130 327.511 138 322.5 149.316 305.64C160.737 274.144 164.235 239.715 154.446 207.274C142.826 168.766 111.438 151.75 73.386 151.75C57.9891 151.75 41.6202 155.321 39.2821 173.17C36.7707 192.343 49.4716 214.318 68.7073 219.394C88.4766 224.61 113.153 221.895 132.575 218.154C161.503 212.58 186.99 202.381 208.392 181.739C218.616 171.878 227.184 158.698 233.533 146" stroke="#352F44" stroke-width="3" stroke-linecap="round" stroke-dasharray="12 12"/>
<path d="M267.44 144.873C267.371 146.316 266.73 147.421 265.516 148.189C264.305 148.957 263.024 149.029 261.671 148.405L247.93 142.063C247.069 141.666 246.413 141.068 245.961 140.27C245.509 139.471 245.387 138.604 245.596 137.668L251.161 108.159L232.316 131.538C231.738 132.304 230.999 132.774 230.099 132.949C229.198 133.123 228.317 133.011 227.456 132.614L213.715 126.272C212.363 125.648 211.585 124.625 211.381 123.204C211.181 121.784 211.607 120.58 212.66 119.591L262.562 74.486C263.94 73.2784 265.428 73.0434 267.027 73.7812C268.625 74.519 269.412 75.8038 269.387 77.6357L267.44 144.873Z" fill="#352F44"/>
</g>
<defs>
<clipPath id="clip0_1_114">
<rect width="320" height="568" fill="white"/>
</clipPath>
</defs>
</svg>
